# xmcd CD database file
#
# Track frame offsets:
#	150
#	24748
#	42747
#	66000
#	89239
#	118157
#	140091
#	165380
#	188523
#	231911
#	254721
#
# Disc length: 3738 seconds
#
# Revision: 0
# Processed by: cddbd v1.5.2PL0 Copyright (c) Steve Scherf et al.
# Submitted via: CDex 1.51
#
DISCID=a60e980b
DTITLE=Larry Garner - Here Today Gone Tomorrow
DYEAR=2008
DGENRE=Blues
TTITLE0=Bull Rider
TTITLE1=Heavy Pieces
TTITLE2=Here today Gone Tomorrow
TTITLE3=For You Mr. King
TTITLE4=The Last Coke
TTITLE5=Raised In The Country
TTITLE6=Show Me That You Love Me
TTITLE7=Someplace For Evil
TTITLE8=Keep Singing The Blues
TTITLE9=Champagne And Reefer
TTITLE10=Funk It Up
EXTD=YEAR: 2008
EXTT0=
EXTT1=
EXTT2=
EXTT3=
EXTT4=
EXTT5=
EXTT6=
EXTT7=
EXTT8=
EXTT9=
EXTT10=
PLAYORDER=
